<?xml version="1.0" encoding="UTF-8"?>
<svg id="Layer_2" data-name="Layer 2" xmlns="http://www.w3.org/2000/svg" viewBox="0 0 86.46 86.46">
  <defs>
    <style>
      .cls-1 {
        fill: #fff;
      }

      .cls-2 {
        fill: none;
        stroke: #fff;
        stroke-miterlimit: 10;
        stroke-width: .43px;
      }
    </style>
  </defs>
  <g id="Layer_1-2" data-name="Layer 1">
    <g>
      <path class="cls-2" d="M43.23,86.25C19.47,86.25,.22,66.99,.22,43.23S19.47,.22,43.23,.22s43.02,19.26,43.02,43.02-19.26,43.02-43.02,43.02Z"/>
      <path class="cls-1" d="M37.53,56.84c1.17-.24,2.17-.69,3.02-1.33,.76-.57,1.39-1.26,1.89-2.09,.8-1.26,1.19-2.69,1.19-4.26s-.35-2.83-1.04-3.91c-.69-1.07-1.72-1.85-3.09-2.35,.89-.46,1.57-.96,2.04-1.52,.81-.98,1.24-2.3,1.24-3.93s-.41-2.94-1.22-4.07c-1.35-1.85-3.67-2.8-6.93-2.85h-12.91v26.7h12.04c1.35,0,2.61-.13,3.78-.37v-.02Zm-10.48-21.7h5.81c1.28,0,2.33,.13,3.15,.43,.96,.39,1.44,1.22,1.44,2.46,0,1.13-.37,1.91-1.09,2.35-.72,.44-1.67,.67-2.83,.67h-6.5v-5.89l.02-.02Zm0,17.42v-7.11h6.57c1.15,0,2.04,.17,2.67,.44,1.13,.52,1.7,1.48,1.7,2.87,0,1.65-.59,2.76-1.76,3.33-.65,.31-1.56,.46-2.7,.46h-6.48Z"/>
      <path class="cls-1" d="M48.16,55.45c2,1.63,4.33,2.43,6.96,2.43,3.18,0,5.67-.96,7.43-2.89,1.15-1.2,1.78-2.41,1.91-3.57h-5.28c-.31,.57-.67,1.04-1.06,1.35-.74,.61-1.69,.91-2.87,.91-1.11,0-2.06-.24-2.85-.74-1.3-.8-1.98-2.19-2.07-4.17h14.39c.02-1.7-.04-3.02-.17-3.93-.24-1.56-.76-2.91-1.57-4.07-.89-1.33-2.04-2.31-3.41-2.93-1.37-.61-2.93-.93-4.65-.93-2.89,0-5.24,.91-7.06,2.74-1.81,1.81-2.72,4.44-2.72,7.87,0,3.65,1,6.3,3.02,7.91v.02Zm3.69-13.13c.72-.76,1.76-1.13,3.07-1.13,1.22,0,2.24,.35,3.06,1.06,.81,.7,1.28,1.76,1.37,3.13h-8.89c.19-1.28,.65-2.3,1.37-3.06h.02Z"/>
      <path class="cls-1" d="M60.4,32.03h-11.61v2.7h11.61v-2.7Z"/>
    </g>
  </g>
</svg>