<?xml version="1.0" encoding="UTF-8"?>
<svg id="Layer_2" data-name="Layer 2" xmlns="http://www.w3.org/2000/svg" viewBox="0 0 69.28 69.28">
  <defs>
    <style>
      .cls-1 {
        fill: #fff;
      }

      .cls-2 {
        fill: none;
        stroke: #fff;
        stroke-miterlimit: 10;
        stroke-width: .43px;
      }
    </style>
  </defs>
  <g id="Layer_1-2" data-name="Layer 1">
    <path class="cls-2" d="M34.64,69.06C15.63,69.06,.22,53.65,.22,34.64S15.63,.22,34.64,.22s34.42,15.41,34.42,34.42-15.41,34.42-34.42,34.42Z"/>
    <path class="cls-1" d="M34.64,20.92c4.48,0,4.99,.01,6.76,.1,1.63,.07,2.52,.34,3.11,.58,.79,.3,1.33,.67,1.93,1.24,.59,.59,.95,1.14,1.24,1.93,.22,.59,.5,1.48,.58,3.11,.07,1.76,.1,2.3,.1,6.76s-.01,4.99-.1,6.76c-.07,1.63-.34,2.52-.58,3.11-.3,.79-.67,1.33-1.24,1.93-.58,.59-1.14,.95-1.93,1.24-.59,.22-1.48,.5-3.11,.58-1.76,.07-2.3,.1-6.76,.1s-4.99-.01-6.76-.1c-1.63-.07-2.52-.34-3.11-.58-.79-.3-1.33-.67-1.93-1.24-.59-.59-.95-1.14-1.24-1.93-.22-.59-.5-1.48-.58-3.11-.07-1.76-.1-2.3-.1-6.76s.01-4.99,.1-6.76c.07-1.63,.34-2.52,.58-3.11,.3-.79,.67-1.33,1.24-1.93,.59-.59,1.14-.95,1.93-1.24,.59-.22,1.48-.5,3.11-.58,1.76-.07,2.3-.1,6.76-.1Zm0-3.01c-4.55,0-5.11,.01-6.91,.1-1.78,.07-2.99,.37-4.06,.79-1.1,.43-2.03,.99-2.96,1.93-.93,.93-1.5,1.87-1.93,2.96-.41,1.07-.7,2.28-.77,4.06-.09,1.78-.1,2.36-.1,6.91s.01,5.11,.1,6.91c.07,1.78,.37,2.99,.77,4.06,.43,1.1,.99,2.03,1.93,2.96,.93,.93,1.87,1.5,2.96,1.93,1.07,.41,2.28,.7,4.06,.79,1.78,.07,2.36,.1,6.91,.1s5.11-.01,6.91-.1c1.78-.07,2.99-.37,4.06-.79,1.1-.43,2.03-.99,2.96-1.93,.93-.93,1.5-1.87,1.93-2.96,.41-1.07,.7-2.28,.77-4.06,.07-1.78,.1-2.36,.1-6.91s-.01-5.11-.1-6.91c-.07-1.78-.37-2.99-.77-4.06-.43-1.1-.99-2.03-1.93-2.96-.93-.93-1.87-1.5-2.96-1.93-1.07-.41-2.28-.7-4.06-.79-1.78-.07-2.36-.1-6.91-.1Z"/>
    <path class="cls-1" d="M34.64,26.04c-4.74,0-8.59,3.85-8.59,8.59s3.85,8.59,8.59,8.59,8.59-3.85,8.59-8.59-3.85-8.59-8.59-8.59Zm0,14.17c-3.08,0-5.57-2.5-5.57-5.57s2.5-5.57,5.57-5.57,5.57,2.5,5.57,5.57-2.5,5.57-5.57,5.57Z"/>
    <path class="cls-1" d="M45.57,25.7c0,1.11-.9,2.02-2.02,2.02s-2.02-.9-2.02-2.02,.9-2.02,2.02-2.02,2.02,.9,2.02,2.02Z"/>
  </g>
</svg>